<svg width="22" height="22" viewBox="0 0 22 22" fill="none" xmlns="http://www.w3.org/2000/svg">
<path d="M18.6799 0.919922H3.31992C1.99512 0.919922 0.919922 1.99512 0.919922 3.31992V18.6799C0.919922 20.0047 1.99512 21.0799 3.31992 21.0799H18.6799C20.0047 21.0799 21.0799 20.0047 21.0799 18.6799V3.31992C21.0799 1.99512 20.0047 0.919922 18.6799 0.919922ZM16.7599 8.11992H15.7999C14.7727 8.11992 14.3599 8.35992 14.3599 9.07992V10.5199H16.7599L16.2799 12.9199H14.3599V20.1199H11.9599V12.9199H10.0399V10.5199H11.9599V9.07992C11.9599 7.15992 12.9199 5.71992 14.8399 5.71992C16.2319 5.71992 16.7599 6.19992 16.7599 6.19992V8.11992Z" fill="white"/>
</svg>
