<svg width="120" height="20" viewBox="0 0 120 20" fill="none" xmlns="http://www.w3.org/2000/svg">
<path d="M0.375 2.59375C0.375 2.01042 0.572917 1.52083 0.96875 1.125C1.38542 0.708333 1.88542 0.5 2.46875 0.5H20.6562C21.2396 0.5 21.7396 0.697917 22.1562 1.09375C22.5521 1.51042 22.75 2.01042 22.75 2.59375C22.75 3.17708 22.5417 3.67708 22.125 4.09375C21.7292 4.48958 21.2396 4.6875 20.6562 4.6875H13.6875V17.3438C13.5625 18.5938 12.875 19.2708 11.625 19.375C11.0417 19.375 10.5312 19.1875 10.0938 18.8125C9.67708 18.4167 9.46875 17.9271 9.46875 17.3438V4.6875H2.46875C1.88542 4.6875 1.39583 4.47917 1 4.0625C0.583333 3.66667 0.375 3.17708 0.375 2.59375ZM32.5 18.9375C30.6667 18.875 29.2812 18.4479 28.3438 17.6562C27.4062 16.8438 26.7292 15.9375 26.3125 14.9375C25.8958 13.9167 25.6875 12.8854 25.6875 11.8438C25.6875 10.7604 25.8854 9.71875 26.2812 8.71875C26.6979 7.69792 27.375 6.79167 28.3125 6C29.2708 5.1875 30.4792 4.77083 31.9375 4.75H42.0625C43.5208 4.77083 44.7188 5.1875 45.6562 6C46.6146 6.79167 47.2917 7.69792 47.6875 8.71875C48.1042 9.71875 48.3125 10.7604 48.3125 11.8438C48.3125 12.8854 48.1042 13.9167 47.6875 14.9375C47.2708 15.9375 46.5938 16.8438 45.6562 17.6562C44.7188 18.4479 43.3333 18.875 41.5 18.9375H32.5ZM31.8125 8.9375C31.4167 8.9375 31.0729 9.10417 30.7812 9.4375C30.4896 9.75 30.2708 10.125 30.125 10.5625C30 10.9792 29.9375 11.3958 29.9375 11.8125C29.9375 12.25 30 12.6875 30.125 13.125C30.2708 13.5417 30.4896 13.9167 30.7812 14.25C31.0729 14.5625 31.4167 14.7292 31.8125 14.75H42.1875C42.5833 14.7292 42.9271 14.5625 43.2188 14.25C43.5104 13.9167 43.7188 13.5417 43.8438 13.125C43.9896 12.6875 44.0625 12.25 44.0625 11.8125C44.0625 11.3958 43.9896 10.9792 43.8438 10.5625C43.7188 10.125 43.5104 9.75 43.2188 9.4375C42.9271 9.10417 42.5833 8.9375 42.1875 8.9375H31.8125ZM61.875 19.4688C60.7917 19.4688 59.7188 19.3438 58.6562 19.0938C57.6146 18.8438 56.6146 18.4792 55.6562 18C54.6979 17.5 53.8542 16.8438 53.125 16.0312C52.3958 15.2188 52 14.25 51.9375 13.125V11.8125V6.46875C51.9375 5.88542 52.1458 5.40625 52.5625 5.03125C53 4.63542 53.5104 4.4375 54.0938 4.4375C55.3438 4.54167 56.0208 5.21875 56.125 6.46875V7.84375V12.1562C56.1667 12.8021 56.4062 13.3438 56.8438 13.7812C57.3021 14.1979 57.8021 14.5312 58.3438 14.7812C58.9062 15.0312 59.4792 15.2188 60.0625 15.3438C60.6667 15.4688 61.2708 15.5312 61.875 15.5312C62.4792 15.5312 63.0729 15.4688 63.6562 15.3438C64.2604 15.2188 64.8333 15.0312 65.375 14.7812C65.9375 14.5312 66.4375 14.1979 66.875 13.7812C67.3333 13.3438 67.5833 12.8021 67.625 12.1562V7.84375V6.46875C67.625 5.88542 67.8333 5.40625 68.25 5.03125C68.6875 4.63542 69.1979 4.4375 69.7812 4.4375C71.0312 4.54167 71.7188 5.21875 71.8438 6.46875V11.8125V13.125C71.7812 14.25 71.375 15.2188 70.625 16.0312C69.8958 16.8438 69.0521 17.5 68.0938 18C67.1354 18.4792 66.125 18.8438 65.0625 19.0938C64.0208 19.3438 62.9583 19.4688 61.875 19.4688ZM76.5 8.6875C76.8958 7.6875 77.5625 6.79167 78.5 6C79.4583 5.1875 80.6667 4.77083 82.125 4.75H93.875C94.4583 4.75 94.9479 4.95833 95.3438 5.375C95.7604 5.77083 95.9688 6.26042 95.9688 6.84375C95.9688 7.42708 95.7604 7.92708 95.3438 8.34375C94.9479 8.73958 94.4583 8.9375 93.875 8.9375H82C81.6042 8.9375 81.2604 9.10417 80.9688 9.4375C80.6771 9.75 80.4479 10.125 80.2812 10.5625C80.1354 11 80.0625 11.4167 80.0625 11.8125V17.2812C79.9375 18.5312 79.25 19.2083 78 19.3125C77.4167 19.3125 76.9062 19.125 76.4688 18.75C76.0521 18.3542 75.8438 17.8646 75.8438 17.2812V11.8438H75.875C75.875 10.7604 76.0833 9.70833 76.5 8.6875ZM118.906 6.5625C118.906 7.08333 118.698 7.52083 118.281 7.875C117.885 8.20833 117.396 8.375 116.812 8.375H103.594C103.323 8.375 103.104 8.42708 102.938 8.53125C102.771 8.63542 102.646 8.75 102.562 8.875C102.479 8.97917 102.438 9.07292 102.438 9.15625C102.438 9.26042 102.479 9.375 102.562 9.5C102.646 9.60417 102.771 9.70833 102.938 9.8125C103.104 9.89583 103.323 9.94792 103.594 9.96875H113.812C115.125 9.98958 116.208 10.25 117.062 10.75C117.917 11.2292 118.521 11.8021 118.875 12.4688C119.25 13.1146 119.438 13.7708 119.438 14.4375C119.438 15.0833 119.25 15.7396 118.875 16.4062C118.5 17.0521 117.885 17.625 117.031 18.125C116.198 18.6042 115.125 18.8438 113.812 18.8438C113.583 18.8646 113.417 18.875 113.312 18.875H101.188C100.604 18.875 100.104 18.7083 99.6875 18.375C99.2917 18.0208 99.0938 17.5938 99.0938 17.0938C99.0938 16.5729 99.3021 16.1354 99.7188 15.7812C100.115 15.4479 100.604 15.2812 101.188 15.2812H114.062C114.375 15.3021 114.625 15.2604 114.812 15.1562C115.021 15.0521 115.177 14.9375 115.281 14.8125C115.385 14.6875 115.438 14.5625 115.438 14.4375C115.438 14.375 115.385 14.2708 115.281 14.125C115.177 13.9583 115.021 13.8333 114.812 13.75C114.625 13.6458 114.375 13.5833 114.062 13.5625H103.812C102.604 13.5417 101.604 13.2917 100.812 12.8125C100.021 12.3125 99.4583 11.7396 99.125 11.0938C98.7917 10.4479 98.625 9.80208 98.625 9.15625C98.625 8.51042 98.7917 7.875 99.125 7.25C99.4792 6.60417 100.042 6.05208 100.812 5.59375C101.604 5.11458 102.604 4.85417 103.812 4.8125C104.021 4.79167 104.177 4.78125 104.281 4.78125H116.812C117.396 4.78125 117.885 4.95833 118.281 5.3125C118.698 5.64583 118.906 6.0625 118.906 6.5625Z" fill="#1AC74A"/>
</svg>
